<?xml version="1.0" standalone="no"?>
<!DOCTYPE svg PUBLIC "-//W3C//DTD SVG 20010904//EN"
 "http://www.w3.org/TR/2001/REC-SVG-20010904/DTD/svg10.dtd">
<svg version="1.0" xmlns="http://www.w3.org/2000/svg"
 width="460.000000pt" height="460.000000pt" viewBox="0 0 460.000000 460.000000"
 preserveAspectRatio="xMidYMid meet">
<metadata>
Created by potrace 1.14, written by Peter Selinger 2001-2017
</metadata>
<g transform="translate(0.000000,460.000000) scale(0.100000,-0.100000)"
fill="#000000" stroke="none">
<path d="M2215 3802 c-3 -3 -27 -7 -53 -8 -26 -1 -47 -3 -47 -4 0 -2 -23 -4
-51 -5 -28 -1 -57 -5 -64 -10 -9 -6 -11 -4 -5 4 6 10 3 11 -11 3 -17 -8 -84
-22 -121 -25 -7 0 -13 -4 -13 -8 0 -4 -15 -6 -32 -5 -18 2 -37 1 -43 -2 -5 -4
-16 -7 -25 -8 -18 -2 -49 -9 -115 -28 -27 -7 -58 -12 -67 -10 -10 1 -18 -1
-18 -6 0 -5 -6 -7 -12 -5 -22 8 -227 12 -223 4 3 -3 -5 -10 -18 -14 -12 -4
-24 -8 -27 -9 -3 -1 -22 -8 -42 -15 -21 -7 -38 -17 -38 -22 0 -6 -4 -8 -9 -4
-5 3 -18 -5 -28 -18 -33 -41 -72 -65 -120 -73 -27 -4 -52 -6 -57 -5 -4 1 -14
-4 -22 -10 -10 -8 -14 -8 -14 0 0 8 -6 8 -17 2 -16 -9 -50 -22 -63 -25 -3 -1
-15 -7 -26 -14 -12 -6 -24 -8 -28 -5 -3 3 -6 1 -6 -5 0 -6 -9 -14 -20 -17 -11
-3 -20 -15 -20 -25 0 -10 -8 -21 -17 -24 -10 -3 -31 -17 -47 -31 -16 -14 -33
-25 -38 -25 -5 0 -43 -34 -83 -75 -41 -41 -72 -75 -70 -75 8 0 -28 -42 -59
-69 -58 -52 -106 -99 -106 -105 0 -6 -23 -36 -47 -61 -7 -7 -9 -15 -6 -19 4
-3 -4 -21 -17 -38 -13 -18 -19 -33 -14 -35 15 -5 6 -120 -15 -190 -5 -18 -6
-33 -2 -33 4 0 7 -18 6 -40 -1 -22 2 -40 7 -40 4 0 5 -7 2 -15 -4 -8 -1 -15 6
-15 6 0 8 -5 5 -11 -4 -5 0 -18 8 -27 9 -9 18 -33 20 -52 3 -19 6 -35 7 -35 1
0 3 -13 5 -30 1 -16 7 -31 14 -33 6 -2 11 -10 11 -18 0 -8 3 -13 8 -13 18 3
21 -3 12 -26 -5 -14 -6 -25 -2 -25 4 0 7 -49 7 -109 -1 -79 -5 -114 -15 -127
-8 -11 -11 -16 -6 -12 4 3 21 -8 37 -24 16 -17 29 -28 29 -24 0 3 14 -1 31
-10 18 -9 47 -16 65 -16 21 0 31 -4 28 -10 -5 -7 -1 -7 11 -1 10 6 32 7 54 2
19 -4 38 -5 41 -1 3 4 20 8 39 10 24 2 39 -4 52 -19 10 -12 17 -25 14 -28 -6
-11 51 -41 72 -38 27 4 62 26 43 27 -13 0 -13 2 -1 9 9 6 26 2 48 -10 18 -10
46 -19 61 -19 29 1 66 23 55 33 -3 4 0 7 7 7 7 0 10 3 7 7 -4 3 7 19 23 35 26
24 33 26 49 16 11 -7 17 -16 14 -22 -3 -5 -1 -6 5 -2 6 3 14 1 17 -5 4 -5 13
-8 21 -5 7 3 16 1 19 -5 4 -5 10 -7 15 -4 5 3 23 8 42 10 61 10 76 13 98 20
16 5 20 4 15 -5 -5 -9 -2 -10 11 -3 11 5 44 8 73 8 l55 -1 3 -74 c1 -41 8 -97
15 -125 6 -27 11 -53 10 -57 -1 -5 3 -8 10 -8 6 0 9 -3 6 -6 -4 -3 -2 -20 4
-37 6 -18 12 -47 14 -66 2 -18 7 -38 12 -45 5 -6 8 -19 7 -28 -2 -10 1 -18 6
-18 6 0 8 -4 5 -8 -3 -5 4 -15 15 -22 10 -8 19 -21 19 -29 0 -8 3 -11 7 -8 3
4 14 -4 23 -19 10 -14 21 -25 26 -25 5 0 19 -8 31 -19 12 -10 24 -16 26 -13 3
2 10 -5 17 -16 6 -12 20 -21 30 -21 11 0 20 -4 20 -9 0 -5 14 -12 30 -16 17
-4 30 -11 30 -17 0 -6 3 -9 6 -5 4 3 13 -1 21 -9 8 -8 19 -12 24 -9 5 4 9 3 9
-2 0 -8 49 -27 95 -38 11 -3 21 -9 23 -15 2 -5 12 -10 22 -10 10 0 22 -5 25
-10 4 -6 11 -8 16 -5 5 4 9 1 9 -4 0 -6 9 -11 19 -11 11 0 23 -5 26 -10 4 -6
12 -10 18 -9 26 3 38 -2 31 -13 -5 -8 0 -9 14 -6 12 4 22 2 22 -3 0 -6 6 -9
13 -8 6 1 26 -4 42 -11 17 -7 33 -13 38 -12 4 1 7 -3 7 -9 0 -6 7 -9 15 -5 8
3 15 0 15 -6 0 -6 3 -8 7 -5 3 4 13 1 21 -5 7 -7 24 -14 35 -15 12 -2 24 -8
25 -13 2 -6 8 -7 13 -4 6 3 16 0 24 -6 8 -7 15 -9 15 -5 0 5 10 0 22 -11 12
-10 18 -13 13 -5 -6 11 -2 10 16 -2 13 -9 31 -17 41 -17 9 0 21 -6 25 -13 4
-6 37 -25 73 -42 36 -16 67 -32 70 -35 6 -6 27 -11 52 -13 10 -1 18 -5 18 -9
0 -4 8 -5 19 -3 10 2 31 -3 46 -11 15 -8 31 -12 35 -9 5 3 11 1 15 -4 3 -6 13
-7 22 -4 11 4 14 2 9 -5 -4 -7 1 -10 14 -7 11 2 22 -1 25 -6 4 -5 10 -7 15 -4
5 3 19 1 30 -5 15 -8 20 -8 20 2 0 10 2 10 9 -1 5 -7 14 -10 20 -7 6 4 11 3
11 -1 0 -5 12 -8 28 -7 15 1 31 -1 37 -4 5 -4 26 -8 45 -9 52 -5 95 -10 95
-13 0 -6 57 -4 62 3 2 4 10 4 16 -1 7 -5 31 -9 55 -8 23 1 42 -2 42 -7 0 -4 5
-5 11 -1 6 3 61 5 122 4 62 -1 184 -3 272 -4 88 -1 166 -5 172 -9 6 -4 15 -2
18 4 4 5 13 8 21 5 7 -3 16 -1 19 4 3 5 15 7 26 5 11 -2 22 2 26 10 3 8 10 15
17 15 14 0 48 59 40 71 -3 5 0 9 5 9 6 0 11 9 11 20 0 11 4 20 8 20 5 0 9 6
10 13 1 6 5 30 10 53 11 53 5 239 -8 239 -1 0 -3 14 -5 32 -1 18 -6 40 -10 50
-12 27 -16 45 -17 76 -1 15 -6 27 -12 27 -6 0 -4 5 4 10 8 5 10 10 4 10 -12 0
-13 49 -1 67 4 6 3 14 -2 17 -7 4 -8 71 -1 71 1 0 3 10 6 23 3 17 1 21 -8 16
-10 -6 -10 -5 -1 7 7 8 13 35 13 60 1 68 4 89 10 89 4 0 7 6 8 13 2 31 12 78
17 87 3 6 1 10 -6 10 -8 0 -8 4 -1 13 5 6 9 28 8 47 -1 19 3 38 8 42 8 5 7 8
-1 8 -11 0 -7 34 7 55 3 6 5 20 4 33 0 12 3 22 8 22 6 0 8 7 4 15 -3 8 4 21
17 30 12 8 17 15 12 15 -5 0 6 14 23 31 18 18 35 42 38 55 3 13 10 24 15 24 5
0 9 16 9 35 0 19 -5 35 -11 35 -5 0 -8 4 -4 9 3 6 -10 26 -30 45 -22 22 -35
45 -35 61 0 14 -4 25 -10 25 -5 0 -10 7 -10 15 0 8 -4 15 -8 15 -5 0 -15 11
-22 25 -7 14 -16 23 -18 20 -3 -3 -12 1 -21 9 -20 17 -81 29 -81 15 0 -6 -7
-6 -20 1 -11 6 -19 14 -18 18 1 4 -2 16 -6 27 -36 92 -51 125 -58 125 -4 0 -7
3 -6 8 4 14 -32 70 -76 117 -25 26 -43 52 -39 58 3 6 1 7 -6 3 -6 -4 -14 0
-17 8 -3 9 -12 16 -20 16 -8 0 -14 5 -14 10 0 6 -8 10 -17 10 -10 0 -54 18
-98 39 -44 22 -83 37 -87 35 -5 -3 -8 0 -8 6 0 6 -4 8 -10 5 -5 -3 -10 -1 -10
5 0 6 -4 8 -10 5 -5 -3 -10 -2 -10 3 0 5 -6 9 -12 10 -48 6 -60 9 -66 18 -9
11 -72 34 -96 34 -9 0 -14 5 -11 10 3 6 -3 10 -15 10 -20 0 -63 23 -85 45 -5
5 -11 31 -12 57 -2 55 -21 97 -57 123 -14 11 -26 25 -26 32 0 7 -4 13 -10 13
-5 0 -10 5 -10 12 0 6 -22 32 -49 57 -68 63 -78 71 -85 64 -3 -4 -6 -1 -6 5 0
7 -5 12 -10 12 -6 0 -30 9 -55 21 -24 11 -49 18 -55 14 -5 -3 -13 1 -16 9 -3
9 -10 13 -15 10 -5 -3 -28 6 -52 20 -24 15 -51 26 -60 26 -10 0 -17 5 -17 12
0 6 -3 9 -6 5 -4 -3 -19 0 -35 8 -16 9 -32 14 -36 13 -4 -1 -18 3 -29 10 -12
6 -24 8 -28 5 -3 -3 -6 -1 -6 6 0 7 -5 9 -12 5 -6 -4 -16 -1 -22 7 -6 8 -22
15 -36 16 -14 1 -38 5 -55 9 -16 3 -37 7 -45 8 -9 1 -21 5 -27 9 -6 4 -14 3
-18 -3 -4 -6 -11 -7 -17 -4 -11 7 -70 17 -105 18 -13 1 -23 3 -23 6 0 3 -9 6
-20 6 -11 0 -20 -4 -20 -9 0 -4 -6 -5 -12 0 -15 9 -56 12 -63 5z"/>
</g>
</svg>
